<svg width="128" height="52" viewBox="0 0 128 52" fill="none" xmlns="http://www.w3.org/2000/svg">
<path d="M66.2615 38.6462H65.2347V46.2113H66.2615V38.6462Z" fill="#133256"/>
<path d="M74.9929 44.8673H74.9767L70.7889 38.6462H69.4387V46.2113H70.4655V39.9902H70.4897L74.718 46.2113H76.0277V38.6462H74.9929V44.8673Z" fill="#133256"/>
<path d="M79.9406 40.5697C79.9406 40.103 80.2802 39.4189 81.4201 39.4189C82.0103 39.4189 82.5115 39.6845 82.7702 40.0788L83.611 39.3223C83.0451 38.6302 82.2447 38.4531 81.4201 38.4531C79.593 38.4531 78.8411 39.6845 78.8411 40.5697C78.8411 43.5153 82.5843 42.4369 82.5843 44.1833C82.5843 45.0203 81.7435 45.4468 81.0725 45.4468C80.458 45.4468 79.8274 45.1893 79.4636 44.634L78.6147 45.3583C79.1322 46.0746 80.0619 46.4045 81.0401 46.4045C82.5034 46.4045 83.6838 45.5273 83.6838 44.0626C83.6838 41.3343 79.9406 42.4852 79.9406 40.5697V40.5697Z" fill="#133256"/>
<path d="M85.7696 39.612H88.2193V46.2113H89.246V39.612H91.6957V38.6462H85.7696V39.612Z" fill="#133256"/>
<path d="M95.0589 38.6462H94.0321V46.2113H95.0589V38.6462Z" fill="#133256"/>
<path d="M97.3792 39.612H99.8288V46.2113H100.856V39.612H103.305V38.6462H97.3792V39.612Z" fill="#133256"/>
<path d="M110.42 43.2819C110.42 44.2235 109.951 45.4387 108.512 45.4387C107.073 45.4387 106.604 44.2235 106.604 43.2819V38.6462H105.577V43.4428C105.577 45.1973 106.854 46.4045 108.52 46.4045C110.185 46.4045 111.463 45.1973 111.463 43.4428V38.6462H110.436V43.2819H110.42Z" fill="#133256"/>
<path d="M113.726 39.612H116.168V46.2113H117.203V39.612H119.652V38.6462H113.726V39.612Z" fill="#133256"/>
<path d="M123.015 42.8231H126.621V41.8654H123.015V39.612H126.888V38.6462H121.981V46.2113H127.082V45.2536H123.015V42.8231Z" fill="#133256"/>
<path d="M50.9815 15.106L42.9454 33.4956H46.6239L48.2975 29.2865H56.3093L58.0313 33.4956H61.7907L53.8354 15.106H50.9896H50.9815ZM49.4131 26.4777L52.3074 19.0012L55.1532 26.4777H49.4131V26.4777Z" fill="#133256"/>
<path d="M68.3716 15.106H65.0892V33.4875H76.2298V30.5822H68.3716V15.106Z" fill="#133256"/>
<path d="M90.8468 30.5822H82.9885V15.106H79.7062V33.4875H90.8468V30.5822Z" fill="#133256"/>
<path d="M107.024 30.5822H97.6055V25.3832H106.086V22.6308H97.6055V17.963H106.555V15.106H94.3151V33.4875H107.024V30.5822Z" fill="#133256"/>
<path d="M123.792 15.106V28.868H123.743L115.157 15.106H110.8V33.4875H114.09V19.2829H114.139L122.91 33.4875H127.082V15.106H123.792Z" fill="#133256"/>
<path d="M26.6226 38.3324C27.2613 39.5396 28.0051 40.7065 28.8621 41.8091C29.5169 42.6461 30.2203 43.4348 30.9641 44.1672C31.2309 41.6079 30.8105 39.0728 29.7595 36.7872C29.6058 36.4974 29.4603 36.2077 29.3229 35.918C28.951 35.242 28.5306 34.5981 28.0536 33.9784C26.9541 32.562 25.6201 31.395 24.1326 30.4937C24.4479 32.9161 25.1351 35.2581 26.1861 37.4712C26.3478 37.7529 26.4933 38.0427 26.6226 38.3404V38.3324Z" fill="white"/>
<path d="M23.9385 27.4919C27.1158 24.5705 29.145 20.6753 29.6948 16.3535C29.8807 14.8969 29.8807 13.4643 29.7352 12.064C26.6792 15.5326 24.7227 19.8303 24.1245 24.5142C23.9951 25.5121 23.9385 26.5101 23.9385 27.5V27.4919Z" fill="white"/>
<path d="M10.1058 34.1798C12.0218 32.707 14.3259 31.9264 16.7028 31.9264C17.1636 31.9264 17.6244 31.9586 18.0934 32.0149C20.9634 32.3771 23.51 33.8337 25.2806 36.1033C25.6201 36.5379 25.9193 36.9966 26.186 37.4634C25.135 35.2582 24.4398 32.9082 24.1326 30.4858C23.3484 30.011 22.5076 29.6166 21.6425 29.3027C18.6027 31.3228 15.0859 32.3851 11.4559 32.3851C10.6717 32.3851 9.87939 32.3368 9.09519 32.2322C8.50501 32.1598 7.92292 32.0551 7.34891 31.9264C5.47328 33.544 4.07464 35.5882 3.2581 37.8738C4.03422 39.2581 4.9397 40.5699 5.95836 41.7851C5.97453 41.6322 5.98261 41.4793 6.00686 41.3264C6.37067 38.4694 7.83399 35.9343 10.1138 34.1718L10.1058 34.1798Z" fill="#74A040"/>
<path d="M7.96334 31.4274C7.75314 31.5884 7.54294 31.7654 7.34083 31.9345C7.91484 32.0632 8.49693 32.1678 9.0871 32.2403C9.8794 32.3369 10.6636 32.3932 11.4478 32.3932C15.0778 32.3932 18.5946 31.3309 21.6344 29.3108C20.64 28.9567 19.6052 28.6992 18.5299 28.5624C14.7382 28.0795 10.9789 29.1016 7.95526 31.4274H7.96334Z" fill="white"/>
<g style="mix-blend-mode:multiply">
<path d="M29.3229 35.9102C29.4603 36.2079 29.6058 36.4977 29.7595 36.7793C29.622 36.4816 29.4765 36.1918 29.3229 35.9102Z" fill="#74A040"/>
</g>
<path d="M30.9641 44.1673C30.2203 43.4349 29.5088 42.6462 28.8621 41.8092C28.0051 40.7067 27.2613 39.5397 26.6226 38.3325C27.4149 40.1111 27.7141 42.0748 27.4634 44.0546C27.1077 46.8392 25.701 49.2456 23.696 50.9276C25.3129 51.0564 26.9056 51.0242 28.4659 50.8552C29.7514 49.0202 30.6326 46.8634 30.9317 44.4973C30.9479 44.3846 30.956 44.28 30.9641 44.1673V44.1673Z" fill="#74A040"/>
<path d="M31.627 39.6766C30.9156 38.7591 30.293 37.7933 29.7595 36.7874C30.8105 39.081 31.2389 41.6081 30.9641 44.1673C32.7265 45.8977 34.7315 47.3302 36.9143 48.4167C38.216 47.7809 39.4529 47.0485 40.6252 46.2115C37.0922 44.9399 33.9796 42.7026 31.627 39.6766Z" fill="#847AA2"/>
<path d="M29.7352 12.0639C29.8888 13.4642 29.8807 14.8967 29.6948 16.3534C29.145 20.6752 27.1158 24.5704 23.9385 27.4918C23.9385 28.4978 23.9951 29.4958 24.1245 30.4857C25.6201 31.379 26.946 32.554 28.0455 33.9704C28.5225 34.5901 28.951 35.242 29.3148 35.91C27.714 32.5218 27.1077 28.7554 27.5928 24.9487C28.2719 19.6692 30.9721 14.9611 35.2004 11.7017C37.8845 9.63337 40.9728 8.30546 44.2228 7.78234C43.2284 6.7522 42.1532 5.79449 40.989 4.94141C38.1513 5.7462 35.4591 7.09021 33.0499 8.9493C31.8291 9.89091 30.7215 10.9371 29.719 12.0639H29.7352Z" fill="#847AA2"/>
<g style="mix-blend-mode:multiply">
<path d="M26.6226 38.3326C26.4933 38.0348 26.3477 37.7451 26.1861 37.4634C26.3235 37.7531 26.469 38.0428 26.6226 38.3326Z" fill="#847AA2"/>
</g>
<g style="mix-blend-mode:multiply">
<path d="M26.6226 38.3324C27.2613 39.5396 28.0051 40.7065 28.8621 41.8091C29.5169 42.6461 30.2203 43.4348 30.9641 44.1672C31.2309 41.6079 30.8105 39.0728 29.7595 36.7872C29.6058 36.4974 29.4603 36.2077 29.3229 35.918C28.951 35.242 28.5306 34.5981 28.0536 33.9784C26.9541 32.562 25.6201 31.395 24.1326 30.4937C24.4479 32.9161 25.1351 35.2581 26.1861 37.4712C26.3478 37.7529 26.4933 38.0427 26.6226 38.3404V38.3324Z" fill="#74A040"/>
</g>
<g style="mix-blend-mode:multiply">
<path d="M26.6226 38.3324C27.2613 39.5396 28.0051 40.7065 28.8621 41.8091C29.5169 42.6461 30.2203 43.4348 30.9641 44.1672C31.2309 41.6079 30.8105 39.0728 29.7595 36.7872C29.6058 36.4974 29.4603 36.2077 29.3229 35.918C28.951 35.242 28.5306 34.5981 28.0536 33.9784C26.9541 32.562 25.6201 31.395 24.1326 30.4937C24.4479 32.9161 25.1351 35.2581 26.1861 37.4712C26.3478 37.7529 26.4933 38.0427 26.6226 38.3404V38.3324Z" fill="#847AA2"/>
</g>
<path d="M7.96132 31.4273C10.985 29.0934 14.7443 28.0794 18.536 28.5623C19.6112 28.6991 20.6461 28.9566 21.6405 29.3107C22.0043 29.0693 22.3519 28.8198 22.6996 28.5542C23.1361 28.2242 23.5485 27.8701 23.9446 27.4999C23.9446 26.51 24.0012 25.5121 24.1305 24.5141C24.7288 19.8302 26.6853 15.5406 29.7413 12.0639C29.2238 7.30756 26.847 3.00189 23.2655 0C21.6081 0.152911 19.9912 0.466782 18.4309 0.925517C23.7425 3.75036 27.0329 9.63342 26.2245 15.9189C25.7232 19.8543 23.7101 23.3633 20.5571 25.7938C17.4041 28.2242 13.4912 29.2866 9.53782 28.7876C5.8189 28.3128 2.47995 26.5181 0.0707373 23.6932C-0.0424473 25.3592 -0.00202426 27.0009 0.200091 28.6025C2.30209 30.2121 4.72747 31.3549 7.34689 31.9424C7.549 31.7653 7.75112 31.5963 7.9694 31.4354L7.96132 31.4273Z" fill="#5EA5CD"/>
<g style="mix-blend-mode:multiply">
<path d="M7.96334 31.4274C7.75314 31.5884 7.54294 31.7654 7.34083 31.9345C7.91484 32.0632 8.49693 32.1678 9.0871 32.2403C9.8794 32.3369 10.6636 32.3932 11.4478 32.3932C15.0778 32.3932 18.5946 31.3309 21.6344 29.3108C20.64 28.9567 19.6052 28.6992 18.5299 28.5624C14.7382 28.0795 10.9789 29.1016 7.95526 31.4274H7.96334Z" fill="#74A040"/>
</g>
<g style="mix-blend-mode:multiply">
<path d="M7.96334 31.4274C7.75314 31.5884 7.54294 31.7654 7.34083 31.9345C7.91484 32.0632 8.49693 32.1678 9.0871 32.2403C9.8794 32.3369 10.6636 32.3932 11.4478 32.3932C15.0778 32.3932 18.5946 31.3309 21.6344 29.3108C20.64 28.9567 19.6052 28.6992 18.5299 28.5624C14.7382 28.0795 10.9789 29.1016 7.95526 31.4274H7.96334Z" fill="#5EA5CD"/>
</g>
<g style="mix-blend-mode:multiply">
<path d="M23.9385 27.4919C27.1158 24.5705 29.145 20.6753 29.6948 16.3535C29.8807 14.8969 29.8807 13.4643 29.7352 12.064C26.6792 15.5326 24.7227 19.8303 24.1245 24.5142C23.9951 25.5121 23.9385 26.5101 23.9385 27.5V27.4919Z" fill="#847AA2"/>
</g>
<g style="mix-blend-mode:multiply">
<path d="M23.9385 27.4919C27.1158 24.5705 29.145 20.6753 29.6948 16.3535C29.8807 14.8969 29.8807 13.4643 29.7352 12.064C26.6792 15.5326 24.7227 19.8303 24.1245 24.5142C23.9951 25.5121 23.9385 26.5101 23.9385 27.5V27.4919Z" fill="#5EA5CD"/>
</g>
</svg>
